<svg width="750" height="750" viewBox="0 0 750 750" fill="none" xmlns="http://www.w3.org/2000/svg">
<rect width="750" height="750" fill="white"/>
<path d="M481.888 503.123C515.427 507.213 544.202 527.896 567.883 530.729C594.201 533.878 634.004 516.586 674.593 536.938C685.04 542.177 693.618 548.472 690.422 556.296C684.852 569.931 673.13 575.273 647.453 578.978L644.714 579.357C624.864 581.997 603.53 582.636 549.447 582.993L530.967 583.133C465.04 583.707 426.915 586.794 377.545 590.738L372.512 591.146C281.598 598.627 209.028 597.428 154.803 589.136L153.165 588.882C109.355 582.02 83.0155 570.669 70.158 557.79C62.5888 550.209 58.2288 543.14 58.0037 535.584C57.7787 528.028 68.9423 519.722 75.2982 516.586C93.0035 507.85 98.7806 504.682 132.819 500.209C147.474 498.283 169.431 498.437 194.811 497.58C285.858 494.506 426.512 496.371 481.888 503.123Z" fill="white"/>
<path fill-rule="evenodd" clip-rule="evenodd" d="M508.491 519.601C456.878 636.422 270.099 632.659 140.136 552.925C115.316 537.697 29.9969 465.924 113.971 424.014C197.944 382.103 171.047 317.728 238.817 240.947C317.189 152.153 463.139 106.611 565.784 226.08C826.672 529.726 525.87 480.263 508.491 519.601Z" fill="#64FCD9"/>
<path fill-rule="evenodd" clip-rule="evenodd" d="M163.458 209.827C158.805 202.35 154.142 199.481 149.555 201.963C145.672 204.064 145.026 209.675 147.092 218.652L145.854 219.319C144.153 220.237 143.517 222.36 144.435 224.061C144.514 224.208 144.604 224.35 144.703 224.484L145.367 225.372C155.053 238.221 162.729 243.484 168.717 240.59C173.751 238.157 174.601 227.797 172.011 209.048C171.83 207.735 170.66 206.802 169.356 206.896L169.193 206.914C168.897 206.955 168.611 207.048 168.348 207.19L163.458 209.827ZM149.723 216.639L160.523 210.797L160.497 210.757C156.784 204.997 153.637 203.165 150.983 204.601L150.861 204.672C148.9 205.868 148.357 209.627 149.606 216.051L149.723 216.639ZM169.136 210.173L147.278 221.96C147.035 222.091 146.944 222.394 147.075 222.637C147.087 222.658 147.099 222.679 147.114 222.698L147.757 223.559C156.611 235.303 163.27 239.89 167.412 237.889C170.559 236.368 171.385 227.132 169.195 210.61L169.136 210.173ZM164.67 229.071C165.184 228.533 165.5 227.803 165.5 227C165.5 225.343 164.157 224 162.5 224C160.843 224 159.5 225.343 159.5 227C159.5 228.657 160.843 230 162.5 230C162.63 230 162.759 229.992 162.885 229.976L164.59 233.106L164.652 233.205C164.941 233.614 165.496 233.751 165.947 233.506C166.432 233.242 166.611 232.634 166.347 232.149L164.67 229.071Z" fill="#FFB61D"/>
<path fill-rule="evenodd" clip-rule="evenodd" d="M481.888 503.123C515.427 507.213 544.202 527.896 567.883 530.729C594.201 533.878 634.004 516.586 674.593 536.938C685.04 542.177 693.618 548.472 690.422 556.296C684.852 569.931 673.13 575.273 647.453 578.978L644.714 579.357C624.864 581.997 603.53 582.636 549.447 582.993L530.967 583.133C465.04 583.707 426.915 586.794 377.545 590.738L372.512 591.146C281.598 598.627 209.028 597.428 154.803 589.136L153.165 588.882C109.355 582.02 83.0155 570.669 70.158 557.79C62.5888 550.209 58.2288 543.14 58.0037 535.584C57.7787 528.028 68.9423 519.722 75.2982 516.586C93.0035 507.85 98.7806 504.682 132.819 500.209C147.474 498.283 169.431 498.437 194.811 497.58C285.858 494.506 426.512 496.371 481.888 503.123ZM132.067 506.538L129.837 506.835C98.1167 511.136 77.8397 518.962 68.2342 526.764L67.6347 527.265C60.259 533.621 59.5695 540.766 70.1714 551.329C81.7637 562.878 111.33 575.908 153.961 582.55C207.332 590.866 279.086 593.281 369.198 586.049L378.644 585.288C430.668 581.198 470.582 579.021 544.454 578.502L564.846 578.35C608.826 577.952 627.519 577.165 645.564 574.657L647.28 574.41C726.966 558.823 669.468 530.856 636.48 530.729C608.228 530.62 574.296 538.567 564.846 535.593C535.062 526.218 519.769 511.864 481.888 507.271L470.873 505.951L461.47 505.507C307.359 498.348 197.529 497.982 132.067 506.538Z" fill="#00160A"/>
<path d="M231.877 144.378C231.33 144.36 230.782 144.361 230.235 144.38C216.749 144.843 206.163 156.043 206.407 169.493L206.418 169.901L206.584 174.94C207.057 190.078 207.318 205.155 207.365 220.173L207.447 266.38C207.465 283.011 207.455 298.02 207.406 312.719L207.339 328.307C207.077 377.934 206.37 412.764 205.058 427.925L204.805 430.76C203.221 449.289 202.893 475.902 203.832 510.537C203.843 510.938 203.863 511.338 203.893 511.737C204.931 525.78 217.043 536.357 231.055 535.549L231.48 535.521L236.137 535.183C279.663 532.077 323.19 530.524 366.717 530.524C409.321 530.524 452.252 532.012 495.51 534.987C496.761 535.073 498.017 535.081 499.269 535.01C515.67 534.082 528.252 520.166 527.592 503.808L527.568 503.311L527.24 497.412C524.337 444.267 522.833 391.123 522.73 337.978L522.724 332.073C522.724 293.338 524.538 240.215 528.164 172.679C528.205 171.923 528.213 171.165 528.19 170.407C527.734 155.747 515.598 144.201 500.987 144.418L500.544 144.429L478.428 145.099C428.183 146.581 391.597 147.355 368.647 147.422L364.713 147.426L360.666 147.416C337.238 147.315 300.97 146.512 251.84 145.006L231.877 144.378Z" fill="white"/>
<path fill-rule="evenodd" clip-rule="evenodd" d="M498.83 143C497.058 143.971 494.724 144.654 491.826 145.048C499.285 145.71 505.149 145.556 509.419 144.584L508.495 144.47C505.489 144.09 502.267 143.6 498.83 143Z" fill="#E7EAEE"/>
<path fill-rule="evenodd" clip-rule="evenodd" d="M218.304 500.618L218.512 500.626C219.801 500.716 220.71 501.722 220.591 502.833C220.456 504.106 219.096 505.34 217.612 505.442C216.433 505.523 215.613 504.615 215.744 503.206C215.881 501.729 217.039 500.624 218.304 500.618Z" fill="#E7EAEE"/>
<path fill-rule="evenodd" clip-rule="evenodd" d="M241.91 519.933L242.117 519.941C243.406 520.03 244.315 521.037 244.197 522.148C244.061 523.42 242.702 524.654 241.218 524.756C240.038 524.837 239.219 523.93 239.35 522.521C239.487 521.043 240.645 519.938 241.91 519.933Z" fill="#E7EAEE"/>
<path fill-rule="evenodd" clip-rule="evenodd" d="M366.978 518.663C315.766 529.966 411.923 527.969 449.434 525.493C469.849 524.146 486.15 534.344 495.51 534.987C496.761 535.073 498.017 535.081 499.269 535.01C515.67 534.082 528.252 520.166 527.592 503.808L527.568 503.311L527.24 497.412C524.337 444.267 522.833 391.123 522.73 337.978L522.724 332.073C522.724 293.338 524.538 240.215 528.164 172.679C528.205 171.923 528.214 171.165 528.19 170.408C527.734 155.747 499.642 489.384 366.978 518.663Z" fill="#E7EAEE"/>
<path d="M518.869 505.001L519.05 505.008C519.983 505.083 520.747 506.055 520.637 507.242C520.515 508.555 519.382 509.736 518.251 509.826C517.457 509.888 516.786 509.034 516.904 507.567C517.026 506.065 517.966 505.024 518.869 505.001Z" fill="white"/>
<path fill-rule="evenodd" clip-rule="evenodd" d="M518.547 513.57C515.214 513.833 512.871 510.852 513.161 507.264C513.443 503.777 516.098 501.009 519.288 501.261C522.425 501.509 524.675 504.371 524.376 507.589C524.089 510.679 521.544 513.333 518.547 513.57ZM519.05 505.008L518.869 505.001C517.967 505.024 517.026 506.065 516.904 507.567C516.786 509.034 517.457 509.888 518.251 509.826C519.382 509.736 520.515 508.555 520.637 507.242C520.747 506.055 519.983 505.083 519.05 505.008Z" fill="white"/>
<path d="M487.149 166.022C499.001 166.022 508.609 175.63 508.609 187.483C508.609 187.926 508.596 188.37 508.568 188.812L508.253 194.07C507.677 204.048 507.101 215.895 506.528 229.611L506.44 231.807C505.039 268.704 504.994 355.993 506.307 493.674C506.42 505.526 496.904 515.225 485.053 515.338C484.764 515.341 484.475 515.338 484.186 515.329L248.743 508.065C237.842 507.729 228.926 499.269 228.019 488.4L227.82 485.946C224.719 446.862 224.534 396.956 227.266 336.229L227.666 327.521C229.061 295.564 229.171 249.022 227.995 187.895C227.769 176.169 236.993 166.458 248.669 166.036L249.245 166.023L487.149 166.022Z" fill="white"/>
<path fill-rule="evenodd" clip-rule="evenodd" d="M328.853 419.102C339.254 419.54 349.936 417.695 359.199 413.169C370.8 407.5 379.53 397.99 384.362 384.353C390.727 366.391 388.389 346.969 379.239 329.875C371.096 314.66 358.292 303.081 346.49 300.218C346.49 300.218 379.239 346.286 374.548 371.47C367.374 409.976 328.853 419.102 328.853 419.102Z" fill="#E7EAEE"/>
<path fill-rule="evenodd" clip-rule="evenodd" d="M336.417 365C341.479 367.1 343.025 371.001 341.053 376.705L340.94 377.024C328.121 412.221 313.005 412.542 325.94 377.024C327.507 372.721 327.119 369.42 324.774 367.121C328.917 366.28 332.798 365.573 336.417 365Z" fill="#E7EAEE"/>
<path fill-rule="evenodd" clip-rule="evenodd" d="M256.13 323.857C259.446 314.003 264.289 306.595 273.341 300.738L274.491 300.009C276.444 298.783 278.851 297.395 280.809 298.343C283.297 299.548 286.899 303.938 284.708 305.662C283.221 306.831 277.103 308.074 272.492 312.114C267.047 316.884 263.129 324.569 263.129 326.451C263.129 332.591 254.171 329.676 256.13 323.857Z" fill="#E7EAEE"/>
<path fill-rule="evenodd" clip-rule="evenodd" d="M245.873 183.402C234.487 214.665 234.565 220.868 233.882 215.479C231.672 198.052 230.005 186.601 232.631 179.644C235.955 170.837 244.287 169.105 246.433 170.127C250.97 172.288 245.873 183.402 245.873 183.402Z" fill="#E7EAEE"/>
<path fill-rule="evenodd" clip-rule="evenodd" d="M433.197 344.067L429.409 343.951C424.915 343.837 421.676 343.864 418.958 344.076C416.776 344.247 415.147 344.544 414.225 344.836L414.042 344.897L414.024 344.983C413.922 345.493 413.849 346.175 413.817 347L413.808 347.315C413.747 349.79 414.046 353.097 414.64 356.789C415.128 359.817 415.793 362.962 416.488 365.613L416.662 366.265C416.931 367.254 417.191 368.114 417.419 368.784L417.501 369.022L417.6 369.06C418.996 369.556 421.77 369.614 427.12 369.22L430.754 368.936C433.202 368.756 434.985 368.679 436.746 368.701L453.823 369.058C456.212 369.103 458.37 369.138 460.485 369.166L464.321 369.209C473.901 369.767 484.43 369.348 485.739 366.964C489.734 359.691 491.618 344.712 489.734 344.612C486.345 344.432 482.243 344.219 480.294 344.245L475.795 344.327L471.714 344.359C469.851 344.37 467.908 344.376 465.822 344.378L442.418 344.324C440.897 344.313 439.406 344.276 436.721 344.188L433.197 344.067Z" fill="#E7EAEE"/>
<path fill-rule="evenodd" clip-rule="evenodd" d="M253.743 139.696L232.049 139.016C231.383 138.994 230.716 138.995 230.05 139.018C213.467 139.588 200.485 153.494 201.056 170.077L201.221 175.108C201.415 181.321 201.711 187.524 202.006 193.717C202.508 204.233 203.008 214.719 203.008 225.177L203.077 263.103C203.144 315.994 202.984 403.101 200.635 428.331L200.458 430.311C198.931 448.188 197.559 473.339 198.343 505.764L198.469 510.683C198.482 511.167 198.506 511.65 198.542 512.133C199.809 529.272 214.729 542.139 231.868 540.872L236.518 540.535L237.289 540.48C237.444 540.739 237.601 540.999 237.757 541.255C238.51 542.499 239.214 543.66 239.377 544.231C239.79 545.668 239.833 547.297 239.595 550.982L239.354 554.436L239.288 555.558C238.936 562.444 239.732 566.54 243.091 569.625C247.411 573.592 251.988 573.171 261.365 572.309L261.786 572.27L264.2 572.036C266.99 571.767 270.127 571.985 272.265 572.133L272.266 572.133C272.882 572.176 273.414 572.213 273.832 572.231L274.621 572.27C280.002 572.485 280.856 570.714 281.327 566.336C281.587 563.923 281.249 562.025 279.831 557.127L278.771 553.517L278.418 552.262C276.763 546.143 276.914 543.089 279.071 541.611C279.594 541.253 281.781 540.603 284.302 539.853C286.896 539.081 289.845 538.204 291.702 537.431C316.707 536.403 341.712 535.889 366.717 535.889C392.99 535.889 419.388 536.457 445.912 537.592C445.736 537.879 445.704 538.292 445.891 538.87C446.101 539.522 446.899 539.973 447.919 540.55C450.623 542.079 454.884 544.489 453.893 553.847L453.897 554.232C454.046 561.609 458.518 565.936 465.711 567.405C470.521 568.387 475.992 568.091 481.951 567.057C484.901 566.546 486.801 564.701 487.708 561.89C488.209 560.337 488.388 558.942 488.506 556.166C488.506 556.166 487.194 541.738 494.49 540.295C494.707 540.31 494.924 540.325 495.142 540.34C495.986 540.398 496.833 540.426 497.679 540.423C497.793 540.45 497.908 540.479 498.024 540.51C498.374 540.605 498.708 540.551 499.008 540.394C499.196 540.387 499.384 540.377 499.572 540.367C519.097 539.262 534.029 522.538 532.925 503.014L532.597 497.119C529.591 442.104 528.089 387.088 528.089 332.073C528.089 294.609 529.793 243.584 533.2 178.998L533.521 172.967C533.57 172.059 533.58 171.15 533.552 170.241C533 152.471 518.147 138.514 500.377 139.066L489.114 139.412C433.304 141.104 393.146 141.986 368.64 142.057L364.717 142.061C341.838 142.044 304.846 141.255 253.743 139.696ZM487.166 539.808C474.765 539.007 462.392 538.329 450.046 537.773C455.957 540.643 458.065 546 458.182 553.411L458.185 553.847C458.185 558.642 461.915 561.772 466.932 562.796C467.457 562.903 467.996 563.02 468.547 563.14C472.012 563.891 475.974 564.751 480.367 564.03L481.034 563.917C484.073 562.796 484.073 551.879 484.073 551.879C484.106 550.991 484.137 550.412 484.189 549.708L484.256 548.916C484.635 544.942 485.465 541.973 487.166 539.808ZM244.534 542.751C244.243 541.735 243.827 540.836 243.29 540.064C253.816 539.352 264.343 538.731 274.87 538.201C273.225 540.033 273.071 542.509 273.01 545.466C272.958 548.014 273.473 550.724 274.556 554.542L274.621 554.77L275.612 558.144C276.826 562.311 277.19 564.054 277.088 565.514L277.066 565.762C276.92 567.117 275.18 568.646 272.239 568.475L271.713 568.448C270.452 568.257 258.03 568.475 258.03 568.475C252.295 569.056 249.533 568.257 246.719 565.673C244.83 563.938 244.324 560.858 244.696 554.962L244.928 551.652C245.22 547.325 245.195 545.299 244.65 543.177L244.534 542.751ZM230.234 144.38C230.782 144.361 231.329 144.36 231.877 144.378L251.839 145.006C300.97 146.512 337.238 147.315 360.666 147.416L364.713 147.426L368.646 147.422C391.597 147.355 428.183 146.581 478.428 145.099L500.543 144.429L500.987 144.418C515.598 144.201 527.734 155.747 528.19 170.408C528.213 171.165 528.205 171.923 528.164 172.679C524.538 240.215 522.724 293.338 522.724 332.073L522.729 337.978C522.833 391.123 524.337 444.267 527.24 497.412L527.568 503.311L527.592 503.808C528.252 520.166 515.67 534.082 499.269 535.01C498.016 535.081 496.761 535.073 495.51 534.987C452.252 532.012 409.321 530.524 366.717 530.524C323.189 530.524 279.663 532.077 236.136 535.183L231.48 535.521L231.055 535.549C217.043 536.357 204.93 525.78 203.893 511.737C203.863 511.338 203.843 510.938 203.832 510.537C202.893 475.902 203.221 449.289 204.804 430.76L205.058 427.925C206.37 412.764 207.077 377.934 207.339 328.307L207.406 312.719C207.454 298.02 207.465 283.011 207.446 266.38L207.365 220.173C207.318 205.155 207.057 190.078 206.583 174.94L206.418 169.901L206.407 169.493C206.163 156.043 216.749 144.843 230.234 144.38ZM508.609 187.483C508.609 175.63 499.001 166.022 487.149 166.022L249.245 166.023L248.669 166.036C236.993 166.458 227.769 176.169 227.995 187.895C229.171 249.022 229.061 295.564 227.666 327.521L227.266 336.229C224.534 396.956 224.719 446.862 227.819 485.946L228.019 488.4C228.926 499.269 237.842 507.729 248.743 508.065L484.186 515.329C484.475 515.338 484.764 515.341 485.052 515.338C496.904 515.225 506.42 505.526 506.307 493.674C504.994 355.993 505.038 268.704 506.44 231.807L506.528 229.611C507.101 215.895 507.677 204.048 508.253 194.07L508.568 188.812C508.596 188.37 508.609 187.926 508.609 187.483ZM249.451 171.387H487.149C496.038 171.387 503.244 178.593 503.244 187.483C503.244 187.815 503.234 188.148 503.213 188.48C502.651 197.53 502.092 208.333 501.533 220.893L501.167 229.387C499.75 263.283 499.612 344.454 500.752 473.03L500.942 493.725C501.027 502.614 493.89 509.889 485.001 509.973C484.785 509.975 484.568 509.973 484.352 509.966L248.909 502.703L248.554 502.688C240.54 502.266 234.036 495.987 233.366 487.954C230.062 448.364 229.841 397.218 232.713 334.55L232.982 328.75C234.336 298.596 234.529 255.353 233.563 198.988L233.359 187.792C233.188 178.905 240.254 171.561 249.141 171.39C249.245 171.388 249.348 171.387 249.451 171.387ZM241.228 154.933C241.567 158.581 238.924 161.508 235.362 161.263C232.106 161.038 229.241 158.438 228.907 155.306L228.887 155.077C228.68 151.961 231.067 149.312 234.27 148.972L234.512 148.951C237.927 148.716 240.901 151.416 241.228 154.933ZM234.928 152.693L234.721 152.701C233.432 152.79 232.523 153.797 232.641 154.908C232.777 156.18 234.136 157.414 235.62 157.516C236.8 157.597 237.619 156.69 237.488 155.281C237.351 153.803 236.193 152.698 234.928 152.693ZM215.941 183.381C212.228 183.71 209.726 180.138 210.035 175.855C210.338 171.656 213.221 168.282 216.791 168.598L217.022 168.624C220.301 169.05 222.566 172.276 222.381 175.892L222.364 176.145C222.058 179.841 219.286 183.084 215.941 183.381ZM216.516 172.343L216.333 172.335C215.195 172.348 213.942 173.887 213.781 176.125C213.62 178.36 214.581 179.731 215.609 179.64C217.004 179.516 218.457 177.816 218.621 175.835C218.776 173.959 217.72 172.451 216.516 172.343ZM493.939 154.933C493.6 158.581 496.243 161.508 499.805 161.263C503.061 161.038 505.926 158.438 506.26 155.306L506.28 155.077C506.487 151.961 504.1 149.312 500.897 148.972L500.655 148.951C497.24 148.716 494.266 151.416 493.939 154.933ZM500.239 152.693L500.446 152.701C501.735 152.79 502.644 153.797 502.526 154.908C502.39 156.18 501.031 157.414 499.547 157.516C498.367 157.597 497.548 156.69 497.679 155.281C497.816 153.803 498.974 152.698 500.239 152.693ZM513.936 177.242C511.943 174.281 513.157 170.528 516.485 168.998C519.695 167.522 523.519 168.748 525.024 171.823L525.126 172.043C526.433 174.987 525.333 178.379 522.531 179.757L522.323 179.855C519.443 181.131 515.759 179.951 513.936 177.242ZM521.672 173.517L521.575 173.333C520.938 172.24 519.402 171.79 518.054 172.41C516.768 173.001 516.392 174.165 517.052 175.146C517.883 176.38 519.631 176.94 520.8 176.421C521.822 175.969 522.239 174.678 521.672 173.517ZM213.289 498.671C210.685 501.247 210.828 505.188 213.714 507.289C216.353 509.211 220.219 509.06 222.488 506.876L222.65 506.713C224.812 504.459 224.686 500.896 222.45 498.577L222.279 498.405C219.813 496.03 215.8 496.186 213.289 498.671ZM219.555 501.004L219.709 501.143C220.639 502.04 220.688 503.396 219.883 504.171C218.961 505.058 217.127 505.129 215.924 504.254C214.969 503.558 214.924 502.336 215.93 501.34C216.985 500.297 218.582 500.195 219.555 501.004ZM237.32 526.604C234.434 524.502 234.291 520.561 236.895 517.985C239.407 515.5 243.42 515.344 245.885 517.719L246.057 517.891C248.292 520.21 248.418 523.774 246.256 526.028L246.094 526.19C243.825 528.375 239.959 528.526 237.32 526.604ZM243.315 520.457L243.161 520.318C242.189 519.509 240.591 519.611 239.537 520.655C238.531 521.65 238.575 522.872 239.531 523.568C240.733 524.444 242.568 524.372 243.489 523.485C244.294 522.71 244.245 521.354 243.315 520.457ZM501.514 519.232C498.524 522.247 498.444 526.683 501.629 528.964C504.546 531.053 508.913 530.641 511.526 528.069C514.234 525.404 514.311 521.115 511.647 518.506C508.951 515.867 504.428 516.293 501.514 519.232ZM508.901 521.082L509.054 521.223C510.159 522.305 510.125 524.179 508.891 525.393C507.563 526.7 505.226 526.921 503.816 525.91C502.673 525.092 502.705 523.365 504.181 521.876C505.679 520.365 507.763 520.121 508.901 521.082ZM518.547 513.57C515.214 513.833 512.871 510.852 513.161 507.264C513.443 503.777 516.098 501.009 519.288 501.261C522.425 501.509 524.675 504.371 524.376 507.589C524.089 510.679 521.544 513.333 518.547 513.57ZM519.05 505.008L518.869 505.001C517.966 505.024 517.026 506.065 516.904 507.567C516.786 509.034 517.457 509.888 518.251 509.826C519.382 509.736 520.515 508.555 520.637 507.242C520.747 506.055 519.983 505.083 519.05 505.008Z" fill="#00160A"/>
<path fill-rule="evenodd" clip-rule="evenodd" d="M236.896 517.985C234.292 520.561 234.435 524.502 237.32 526.604C239.959 528.526 243.825 528.375 246.094 526.19L246.257 526.028C248.418 523.774 248.292 520.21 246.057 517.891L245.886 517.719C243.42 515.344 239.407 515.5 236.896 517.985ZM243.161 520.318L243.316 520.457C244.246 521.354 244.295 522.71 243.49 523.485C242.568 524.372 240.734 524.444 239.531 523.568C238.575 522.872 238.531 521.65 239.537 520.655C240.592 519.611 242.189 519.509 243.161 520.318Z" fill="#00160A"/>
<path d="M508.901 521.082L509.054 521.223C510.158 522.305 510.124 524.179 508.891 525.393C507.562 526.7 505.226 526.921 503.815 525.911C502.673 525.092 502.704 523.365 504.18 521.876C505.679 520.365 507.762 520.121 508.901 521.082Z" fill="white"/>
<path fill-rule="evenodd" clip-rule="evenodd" d="M272.082 290.793C270.843 291.223 269.726 291.807 268.345 292.657L267.285 293.322L266.76 293.657C258.758 298.822 253.416 305.245 249.615 313.943L249.412 314.414L249.26 314.368C248.251 314.072 247.337 313.927 246.359 314.008C244.275 314.181 242.333 315.43 241.639 317.758C240.555 321.393 241.002 325.55 242.409 329.806L242.673 330.585C244.046 334.53 245.565 337.207 248.091 337.989C251.449 339.028 263.051 334.429 267.097 330.256C269.982 327.279 268.827 323.638 266.08 321.537L265.828 321.35L265.563 321.167L265.261 320.972L265.463 320.612C265.603 320.364 265.75 320.113 265.903 319.859C267.544 317.139 269.595 314.567 271.673 312.746C272.474 312.045 273.399 311.402 274.454 310.803C276.086 309.875 282.597 307.319 283.693 306.457C287.213 303.689 286.806 299.679 284.579 296.203C283.195 294.042 281.018 292.016 278.914 290.997C276.704 289.927 274.391 289.991 272.082 290.793ZM276.809 295.343C279.297 296.548 282.899 300.938 280.708 302.662C279.222 303.831 273.104 305.074 268.492 309.114C263.047 313.884 259.129 321.569 259.129 323.451L259.75 323.684C263.145 324.991 264.438 326.061 263.63 326.895C260.029 330.609 250.243 333.6 249.519 333.376C248.806 333.156 244.583 324.781 246.266 319.137C246.491 318.383 248.445 318.956 252.13 320.857C255.446 311.003 260.289 303.595 269.341 297.738L270.491 297.009C272.444 295.783 274.851 294.395 276.809 295.343Z" fill="#00160A"/>
<path fill-rule="evenodd" clip-rule="evenodd" d="M279.407 401.908C259.531 380.186 258.38 343.131 279.853 319.269C293.193 304.443 324.549 294.894 346.49 300.218C358.292 303.081 371.096 314.66 379.239 329.875C388.389 346.969 390.726 366.391 384.362 384.353C379.53 397.99 370.8 407.5 359.199 413.169C349.936 417.695 339.254 419.54 328.853 419.102C310.082 418.312 286.741 409.923 279.407 401.908ZM374.509 332.407C367.03 318.434 355.376 307.894 345.225 305.431L344.621 305.29C324.607 300.75 295.736 309.638 283.841 322.857C264.259 344.619 265.313 378.558 283.365 398.286C289.595 405.095 311.607 413.006 329.078 413.741C338.642 414.144 348.448 412.451 356.843 408.349C367.206 403.285 374.952 394.847 379.305 382.561C385.134 366.111 382.982 348.238 374.509 332.407ZM364.174 383.811C376.047 362.968 359.952 317.964 337.473 314.208C316.342 310.678 308.332 315.804 299.219 323.706L297.457 325.252C279.622 341.02 279.622 374.895 297.046 390.611C301.425 394.561 320.69 404.693 335.473 401.593C345.275 399.538 358.916 393.041 364.174 383.811ZM314.561 320.088C315.68 319.686 316.86 319.356 318.117 319.098C317.947 319.489 317.803 319.903 317.684 320.341C317.018 322.792 317.086 324.888 317.805 329.99L318.296 333.371C318.338 333.669 318.375 333.942 318.412 334.222L318.52 335.082C319.285 341.542 318.591 344.911 315.703 346.77C313.06 348.47 310.46 349.112 304.523 349.803L302.3 350.055C299.561 350.371 298.122 350.589 296.392 350.98L295.609 351.137C293.211 351.642 291.221 352.268 289.676 353.056C290.695 343.828 294.473 335.051 301.011 329.271C307.177 323.819 310.288 321.62 314.561 320.088ZM336.589 319.5C335.721 319.355 334.876 319.225 334.053 319.11C334.225 319.546 334.372 320.01 334.492 320.5C334.994 322.547 335.08 324.363 334.959 328.503L334.9 330.288C334.838 332.007 334.807 333.03 334.799 334.012L334.798 335.19C334.849 340.426 335.669 343.907 337.683 346.264L337.907 346.515L337.996 346.553C338.121 346.603 338.278 346.66 338.467 346.723L338.665 346.787C339.126 346.934 339.705 347.098 340.445 347.293L341.684 347.609L346.972 348.904C348.01 349.162 348.934 349.397 349.819 349.631L351.274 350.023C355.645 351.227 358.996 352.4 361.434 353.709C357.793 337.412 347.771 321.368 336.589 319.5ZM362.019 365.696C362.321 365.504 362.606 365.308 362.876 365.11C363.007 371.189 361.988 376.81 359.512 381.156C355.958 387.396 346.084 393.338 336.443 395.854C336.687 395.239 336.884 394.571 337.037 393.855C337.505 391.654 337.58 389.134 337.396 385.564L337.28 383.644L337.105 381.117C336.774 376.071 336.854 373.959 337.294 373.453C339.273 371.178 342.015 370.307 348.994 369.306L350.612 369.075C356.446 368.223 359.182 367.504 362.019 365.696ZM321.012 393.241C321.086 394.146 321.387 395.07 321.874 395.942C319.4 395.419 316.825 394.668 314.202 393.708C308.334 391.56 302.644 388.435 300.64 386.628C294.276 380.888 290.613 372.224 289.651 363.101C291.299 363.861 293.479 364.503 296.186 365.144L296.603 365.241C297.695 365.495 298.813 365.731 300.131 365.991L303.899 366.723C312.334 368.456 316.689 370.465 318.679 373.148L318.878 373.428C320.197 375.35 320.561 377.525 320.667 383.175L320.727 387.198C320.774 389.608 320.848 391.206 321.012 393.241ZM327.357 319.326L327.599 319.347C329.876 319.619 330.358 321.731 330.089 329.697L329.998 332.458C329.976 333.291 329.967 333.962 329.967 334.696C329.97 339.691 330.568 343.571 332.174 346.678C331.875 346.519 331.532 346.429 331.169 346.429L330.804 346.433L330.713 346.436L330.672 346.419C330.056 346.19 329.382 346.263 328.838 346.583L328.782 346.617L328.593 346.648C323.914 347.428 319.262 350.223 316.769 353.926C314.094 357.898 314.226 362.234 317.278 365.947C314.374 364.414 310.521 363.185 305.436 362.111L303.795 361.781C302.829 361.594 301.625 361.363 301.625 361.363L300.655 361.172C299.718 360.985 298.888 360.809 298.091 360.629L297.695 360.538C295.273 359.975 293.361 359.399 292.024 358.796L291.811 358.698C291.4 358.502 291.073 358.314 290.841 358.146L290.81 358.122L290.869 358.061C291.035 357.897 291.285 357.711 291.627 357.513C292.799 356.836 294.731 356.216 297.381 355.705L298.051 355.561C299.23 355.318 300.385 355.145 302.189 354.93L305.116 354.596C311.774 353.82 314.857 353.055 318.316 350.83C323.359 347.585 324.321 342.51 323.258 334.046L323.141 333.153C323.081 332.715 323.016 332.259 322.93 331.676L322.597 329.389C322 325.137 321.914 323.312 322.306 321.75L322.343 321.608C322.822 319.848 324.042 319.119 327.357 319.326ZM322.37 370.025C322.433 370.107 322.496 370.189 322.557 370.271C324.838 373.348 325.361 376.065 325.494 383.003L325.547 386.668C325.587 388.962 325.647 390.473 325.777 392.223L325.825 392.852C325.925 394.092 328.042 396.064 330.38 395.618C332.202 395.27 332.907 392.286 332.564 385.644L332.517 384.812L332.25 380.914C331.829 374.533 331.962 372.413 333.419 370.564C329.927 371.878 325.866 371.815 322.37 370.025ZM339.052 366.534C341.217 365.715 343.974 365.161 347.801 364.6L349.877 364.303C354.725 363.594 357.07 363.015 359.056 361.849L359.425 361.623C361.672 360.192 361.888 359.907 360.888 359.1L360.565 358.849C358.797 357.518 355.384 356.19 350.47 354.811L349.432 354.525C348.311 354.222 347.159 353.926 345.802 353.589L340.155 352.204C339.088 351.935 338.235 351.711 337.541 351.506C341.905 356.12 342.627 361.315 339.628 365.752L339.458 365.996C339.328 366.18 339.192 366.359 339.052 366.534ZM329.454 350.856L329.759 350.813L329.975 350.943C336.994 355.21 338.556 359.86 335.961 363.508C333.379 367.137 327.709 368.391 323.64 365.813C318.923 362.824 318.14 359.574 320.329 356.323C322.178 353.578 325.874 351.406 329.454 350.856Z" fill="#00160A"/>
<path d="M400.214 339.186C400.412 338.461 400.605 338.256 400.605 338.25C401.289 337.755 402.715 337.251 405.082 336.916C407.374 336.591 410.175 336.47 413.26 336.464C416.333 336.458 419.601 336.565 422.819 336.676C423.008 336.683 423.197 336.689 423.385 336.696C426.387 336.8 429.342 336.903 431.956 336.906C435.037 336.909 438.168 336.92 441.321 336.931C449.03 336.957 456.875 336.984 464.462 336.906C464.793 336.902 465.271 336.892 465.868 336.88C468.288 336.829 472.662 336.737 477.122 336.881C479.898 336.97 482.623 337.149 484.856 337.472C485.973 337.634 486.912 337.824 487.646 338.037C488.425 338.264 488.776 338.462 488.872 338.535C489.042 338.664 489.396 339.063 489.775 340.003C490.139 340.906 490.444 342.108 490.655 343.561C491.077 346.466 491.082 350.069 490.666 353.619C490.249 357.184 489.429 360.509 488.317 362.914C487.113 365.518 486.006 366.156 485.48 366.213C472.13 367.664 449.572 367.169 431.61 366.776C429.597 366.732 427.641 366.689 425.762 366.65C423.508 366.604 421.151 366.754 418.89 366.93C418.342 366.973 417.801 367.016 417.268 367.06C415.558 367.198 413.921 367.331 412.34 367.398C410.27 367.485 408.468 367.449 406.965 367.198C405.642 366.976 404.703 366.612 404.048 366.147C403.975 365.987 403.879 365.755 403.762 365.44C403.476 364.667 403.134 363.572 402.769 362.231C402.04 359.556 401.263 356.052 400.687 352.477C400.108 348.882 399.752 345.327 399.821 342.511C399.856 341.097 399.996 339.982 400.214 339.186ZM404.159 366.363C404.159 366.364 404.151 366.352 404.135 366.323C404.151 366.347 404.159 366.362 404.159 366.363Z" stroke="#421EB7" stroke-width="5.36509"/>
<path fill-rule="evenodd" clip-rule="evenodd" d="M431.899 334.743C434.994 334.746 438.133 334.757 441.291 334.768C447.785 334.79 454.361 334.812 460.801 334.772L464.375 334.743C464.682 334.74 465.136 334.73 465.711 334.718C471.085 334.605 486.946 334.27 490.434 336.917C496.14 341.248 493.868 368.514 485.71 369.4C472.171 370.871 449.418 370.371 431.507 369.978H431.507H431.507H431.507C429.486 369.933 427.526 369.89 425.648 369.852C423.04 369.798 420.233 370.025 417.462 370.25L417.462 370.25H417.462C411.246 370.754 405.209 371.243 401.998 368.514C400.341 367.106 393.96 340.308 398.93 336.628C402.728 333.816 413.618 334.194 423.403 334.534L423.403 334.534C425.832 334.618 428.193 334.7 430.361 334.731L430.365 334.728L430.367 334.731C430.89 334.738 431.401 334.742 431.899 334.743ZM425.356 339.968C425.884 339.986 426.366 340.001 426.811 340.015C427.172 342.237 427.213 346.141 426.954 351.893L426.763 356.05C426.593 359.935 426.532 362.579 426.643 364.508L425.381 364.482C423.621 364.459 421.837 364.537 419.389 364.717L415.756 365.001C410.406 365.395 407.631 365.337 406.235 364.841L406.136 364.803L406.054 364.565C405.826 363.895 405.567 363.035 405.297 362.046L405.123 361.394C404.429 358.743 403.763 355.598 403.276 352.57C402.681 348.877 402.382 345.571 402.443 343.096L402.453 342.781C402.485 341.956 402.558 341.274 402.66 340.764L402.678 340.678L402.86 340.617C403.782 340.325 405.412 340.027 407.594 339.857C410.311 339.645 413.55 339.618 418.044 339.732L421.833 339.848L425.356 339.968ZM442.458 364.839L432.086 364.622C432.03 364.014 431.99 363.266 431.976 362.401L431.973 362.215C431.956 360.856 431.983 359.558 432.078 357.278L432.38 350.572C432.563 345.965 432.569 342.621 432.264 340.108L454.458 340.159C455.646 340.158 456.788 340.155 457.895 340.152C457.556 346.827 458.096 358.502 458.79 365.023C456.918 365.02 454.974 365.009 452.957 364.99L449.12 364.947C447.006 364.919 444.847 364.884 442.458 364.839ZM464.24 365.005C472.485 364.936 479.104 364.669 484.235 364.159L484.715 364.109L484.78 364.042C485.053 363.732 485.373 363.234 485.7 362.566L485.823 362.308C486.786 360.224 487.549 357.188 487.942 353.826C488.332 350.5 488.328 347.13 487.941 344.467C487.762 343.238 487.511 342.23 487.227 341.525L487.147 341.335L487.087 341.21L486.873 341.143C486.298 340.973 485.51 340.81 484.546 340.666C482.644 340.383 480.196 340.194 477.332 340.093C474.669 340 471.962 339.986 468.93 340.026L464.43 340.108L463.152 340.118C463.11 340.843 463.079 341.706 463.067 342.673L463.064 342.987C463.043 345.602 463.136 348.897 463.322 352.545L463.36 353.279C463.514 356.141 463.718 359.098 463.935 361.698L464.067 363.212C464.126 363.86 464.184 364.461 464.24 365.005ZM440.613 349.17L441.102 349.871C441.661 350.658 442.188 351.355 442.691 351.97C442.016 353.44 441.662 355.091 441.551 357.216C441.511 357.989 442.105 358.648 442.878 358.689C443.65 358.729 444.31 358.135 444.35 357.362C444.414 356.138 444.564 355.128 444.831 354.232C446.382 355.589 447.74 356.093 449.167 356.119L449.443 356.119C450.217 356.119 450.844 355.492 450.844 354.718C450.844 353.992 450.293 353.396 449.586 353.324L449.443 353.317L449.208 353.317C448.293 353.296 447.372 352.91 446.116 351.644C446.525 351.073 447.018 350.505 447.607 349.9L449.11 348.413C449.66 347.869 449.663 346.981 449.119 346.432C448.574 345.882 447.686 345.878 447.137 346.423L445.878 347.662C445.267 348.274 444.73 348.862 444.261 349.451L443.752 348.76C443.488 348.396 443.213 348.004 442.924 347.583C442.485 346.945 441.613 346.783 440.975 347.221C440.337 347.659 440.175 348.532 440.613 349.17ZM478.879 347.835L478.892 346.98C478.899 346.206 478.277 345.574 477.503 345.567C476.729 345.561 476.096 346.183 476.09 346.957C476.083 347.808 476.061 348.571 476.025 349.253C475.307 349.027 474.533 348.84 473.684 348.675L471.948 348.351C471.188 348.207 470.454 348.706 470.31 349.466C470.166 350.227 470.665 350.96 471.425 351.104L473.503 351.497C474.33 351.669 475.055 351.863 475.714 352.109C475.381 353.861 474.833 354.695 474.086 355.224L473.891 355.356L473.776 355.442C473.231 355.896 473.107 356.699 473.513 357.301C473.946 357.943 474.817 358.112 475.458 357.679L475.687 357.525C476.856 356.705 477.7 355.528 478.227 353.535C478.949 354.129 479.638 354.883 480.376 355.862C480.841 356.48 481.72 356.604 482.338 356.138C482.956 355.672 483.08 354.794 482.614 354.176C481.334 352.476 480.117 351.305 478.735 350.463C478.808 349.673 478.856 348.8 478.879 347.835Z" fill="#00160A"/>
<path fill-rule="evenodd" clip-rule="evenodd" d="M417.74 347.716L417.52 348.543C417.264 349.473 417.007 350.308 416.745 351.058C417.881 352.208 418.779 353.639 419.61 355.598C419.912 356.311 419.58 357.133 418.868 357.436C418.155 357.738 417.332 357.405 417.03 356.693C416.551 355.564 416.065 354.666 415.508 353.916C414.515 355.721 413.411 356.659 412.078 357.172L411.819 357.267C411.092 357.531 410.288 357.156 410.023 356.429C409.775 355.747 410.089 354.998 410.729 354.689L410.861 354.633L411.082 354.553C411.935 354.22 412.668 353.543 413.415 351.923C412.835 351.526 412.178 351.162 411.418 350.795L409.497 349.911C408.794 349.587 408.487 348.755 408.811 348.052C409.135 347.349 409.967 347.042 410.67 347.366L412.277 348.1C413.06 348.466 413.766 348.835 414.407 349.228C414.607 348.574 414.813 347.84 415.026 347.016C415.219 346.266 415.984 345.815 416.733 346.009C417.482 346.202 417.933 346.967 417.74 347.716Z" fill="#64FCD9"/>
</svg>
